<mxfile host="app.diagrams.net" modified="2020-09-04T03:32:21.677Z" agent="5.0 (Macintosh; Intel Mac OS X 10_13_6) AppleWebKit/537.36 (KHTML, like Gecko) Chrome/85.0.4183.83 Safari/537.36" etag="pBJ9vutFIxYsmuDBPDNe" version="13.6.5" type="github">
  <diagram id="o1u4RJVUhWsSDAuthQhv" name="第 1 页">
    <mxGraphModel dx="983" dy="532" grid="1" gridSize="10" guides="1" tooltips="1" connect="1" arrows="1" fold="1" page="1" pageScale="1" pageWidth="1169" pageHeight="1654" math="0" shadow="0">
      <root>
        <mxCell id="0" />
        <mxCell id="1" parent="0" />
        <mxCell id="15Y53fs5hdpph1pPM63e-1" value="&lt;font style=&quot;font-size: 18px&quot;&gt;设备端&lt;/font&gt;" style="rounded=1;whiteSpace=wrap;html=1;fillColor=#dae8fc;strokeColor=#6c8ebf;" vertex="1" parent="1">
          <mxGeometry x="120" y="80" width="110" height="50" as="geometry" />
        </mxCell>
        <mxCell id="15Y53fs5hdpph1pPM63e-2" value="&lt;font style=&quot;font-size: 18px&quot;&gt;OTA服务器&lt;/font&gt;" style="rounded=1;whiteSpace=wrap;html=1;fillColor=#dae8fc;strokeColor=#6c8ebf;" vertex="1" parent="1">
          <mxGeometry x="590" y="80" width="110" height="50" as="geometry" />
        </mxCell>
        <mxCell id="15Y53fs5hdpph1pPM63e-3" value="&lt;span style=&quot;font-size: 18px&quot;&gt;oneNet平台&lt;/span&gt;" style="rounded=1;whiteSpace=wrap;html=1;fillColor=#dae8fc;strokeColor=#6c8ebf;" vertex="1" parent="1">
          <mxGeometry x="340" y="80" width="110" height="50" as="geometry" />
        </mxCell>
        <mxCell id="15Y53fs5hdpph1pPM63e-8" value="" style="shape=curlyBracket;whiteSpace=wrap;html=1;rounded=1;size=0.5;fillColor=#f5f5f5;strokeColor=#666666;fontColor=#333333;" vertex="1" parent="1">
          <mxGeometry x="150" y="140" width="20" height="350" as="geometry" />
        </mxCell>
        <mxCell id="15Y53fs5hdpph1pPM63e-9" value="" style="shape=flexArrow;endArrow=classic;html=1;fillColor=#f5f5f5;strokeColor=#666666;" edge="1" parent="1">
          <mxGeometry width="50" height="50" relative="1" as="geometry">
            <mxPoint x="180" y="170" as="sourcePoint" />
            <mxPoint x="400" y="170" as="targetPoint" />
          </mxGeometry>
        </mxCell>
        <mxCell id="15Y53fs5hdpph1pPM63e-10" value="1" style="ellipse;whiteSpace=wrap;html=1;fillColor=#dae8fc;strokeColor=#6c8ebf;" vertex="1" parent="1">
          <mxGeometry x="200" y="140" width="30" height="20" as="geometry" />
        </mxCell>
        <mxCell id="15Y53fs5hdpph1pPM63e-11" value="上报当前设备固件版本" style="text;html=1;strokeColor=none;fillColor=none;align=center;verticalAlign=middle;whiteSpace=wrap;rounded=0;" vertex="1" parent="1">
          <mxGeometry x="240" y="140" width="130" height="20" as="geometry" />
        </mxCell>
        <mxCell id="15Y53fs5hdpph1pPM63e-12" value="" style="shape=flexArrow;endArrow=classic;html=1;fillColor=#f5f5f5;strokeColor=#666666;" edge="1" parent="1">
          <mxGeometry width="50" height="50" relative="1" as="geometry">
            <mxPoint x="640" y="200" as="sourcePoint" />
            <mxPoint x="410" y="200" as="targetPoint" />
          </mxGeometry>
        </mxCell>
        <mxCell id="15Y53fs5hdpph1pPM63e-13" value="2" style="ellipse;whiteSpace=wrap;html=1;fillColor=#dae8fc;strokeColor=#6c8ebf;" vertex="1" parent="1">
          <mxGeometry x="430" y="170" width="30" height="20" as="geometry" />
        </mxCell>
        <mxCell id="15Y53fs5hdpph1pPM63e-14" value="通过控制台添加固件，&lt;br&gt;对设备发送固件升级请求" style="text;html=1;strokeColor=none;fillColor=none;align=center;verticalAlign=middle;whiteSpace=wrap;rounded=0;" vertex="1" parent="1">
          <mxGeometry x="470" y="170" width="140" height="20" as="geometry" />
        </mxCell>
        <mxCell id="15Y53fs5hdpph1pPM63e-15" value="" style="shape=flexArrow;endArrow=classic;html=1;fillColor=#f5f5f5;strokeColor=#666666;" edge="1" parent="1">
          <mxGeometry width="50" height="50" relative="1" as="geometry">
            <mxPoint x="180" y="260" as="sourcePoint" />
            <mxPoint x="400" y="260" as="targetPoint" />
          </mxGeometry>
        </mxCell>
        <mxCell id="15Y53fs5hdpph1pPM63e-16" value="3" style="ellipse;whiteSpace=wrap;html=1;fillColor=#dae8fc;strokeColor=#6c8ebf;" vertex="1" parent="1">
          <mxGeometry x="200" y="230" width="30" height="20" as="geometry" />
        </mxCell>
        <mxCell id="15Y53fs5hdpph1pPM63e-17" value="下发固件的url给设备端" style="text;html=1;strokeColor=none;fillColor=none;align=center;verticalAlign=middle;whiteSpace=wrap;rounded=0;" vertex="1" parent="1">
          <mxGeometry x="230" y="230" width="140" height="20" as="geometry" />
        </mxCell>
        <mxCell id="15Y53fs5hdpph1pPM63e-18" value="" style="line;strokeWidth=2;direction=south;html=1;fillColor=#f5f5f5;strokeColor=#666666;fontColor=#333333;" vertex="1" parent="1">
          <mxGeometry x="170" y="130" width="10" height="390" as="geometry" />
        </mxCell>
        <mxCell id="15Y53fs5hdpph1pPM63e-19" value="" style="line;strokeWidth=2;direction=south;html=1;fillColor=#f5f5f5;strokeColor=#666666;fontColor=#333333;" vertex="1" parent="1">
          <mxGeometry x="400" y="130" width="10" height="390" as="geometry" />
        </mxCell>
        <mxCell id="15Y53fs5hdpph1pPM63e-20" value="" style="line;strokeWidth=2;direction=south;html=1;fillColor=#f5f5f5;strokeColor=#666666;fontColor=#333333;" vertex="1" parent="1">
          <mxGeometry x="640" y="130" width="10" height="390" as="geometry" />
        </mxCell>
        <mxCell id="15Y53fs5hdpph1pPM63e-22" value="&lt;font style=&quot;font-size: 13px ; font-weight: normal&quot;&gt;MQTT协议&lt;/font&gt;" style="text;strokeColor=none;fillColor=none;html=1;fontSize=24;fontStyle=1;verticalAlign=middle;align=center;" vertex="1" parent="1">
          <mxGeometry x="50" y="290" width="100" height="40" as="geometry" />
        </mxCell>
        <mxCell id="15Y53fs5hdpph1pPM63e-23" value="" style="shape=flexArrow;endArrow=none;html=1;fillColor=#f5f5f5;strokeColor=#666666;startArrow=block;endFill=0;" edge="1" parent="1">
          <mxGeometry width="50" height="50" relative="1" as="geometry">
            <mxPoint x="180" y="324.6599999999999" as="sourcePoint" />
            <mxPoint x="400" y="324.6599999999999" as="targetPoint" />
          </mxGeometry>
        </mxCell>
        <mxCell id="15Y53fs5hdpph1pPM63e-24" value="4" style="ellipse;whiteSpace=wrap;html=1;fillColor=#dae8fc;strokeColor=#6c8ebf;" vertex="1" parent="1">
          <mxGeometry x="200" y="294.66" width="30" height="20" as="geometry" />
        </mxCell>
        <mxCell id="15Y53fs5hdpph1pPM63e-25" value="通过HTTPS协议根据固件URL下载固件" style="text;html=1;strokeColor=none;fillColor=none;align=center;verticalAlign=middle;whiteSpace=wrap;rounded=0;" vertex="1" parent="1">
          <mxGeometry x="230" y="294.66" width="160" height="20" as="geometry" />
        </mxCell>
        <mxCell id="15Y53fs5hdpph1pPM63e-26" value="" style="shape=flexArrow;endArrow=classic;html=1;fillColor=#f5f5f5;strokeColor=#666666;" edge="1" parent="1">
          <mxGeometry width="50" height="50" relative="1" as="geometry">
            <mxPoint x="180" y="399.9999999999999" as="sourcePoint" />
            <mxPoint x="400" y="399.9999999999999" as="targetPoint" />
          </mxGeometry>
        </mxCell>
        <mxCell id="15Y53fs5hdpph1pPM63e-27" value="5" style="ellipse;whiteSpace=wrap;html=1;fillColor=#dae8fc;strokeColor=#6c8ebf;" vertex="1" parent="1">
          <mxGeometry x="200" y="370" width="30" height="20" as="geometry" />
        </mxCell>
        <mxCell id="15Y53fs5hdpph1pPM63e-28" value="设备端上报升级进度信息" style="text;html=1;strokeColor=none;fillColor=none;align=center;verticalAlign=middle;whiteSpace=wrap;rounded=0;" vertex="1" parent="1">
          <mxGeometry x="230" y="370" width="140" height="20" as="geometry" />
        </mxCell>
        <mxCell id="15Y53fs5hdpph1pPM63e-30" value="" style="shape=flexArrow;endArrow=classic;html=1;fillColor=#f5f5f5;strokeColor=#666666;" edge="1" parent="1">
          <mxGeometry width="50" height="50" relative="1" as="geometry">
            <mxPoint x="180" y="479.9999999999999" as="sourcePoint" />
            <mxPoint x="400" y="479.9999999999999" as="targetPoint" />
          </mxGeometry>
        </mxCell>
        <mxCell id="15Y53fs5hdpph1pPM63e-31" value="6" style="ellipse;whiteSpace=wrap;html=1;fillColor=#dae8fc;strokeColor=#6c8ebf;" vertex="1" parent="1">
          <mxGeometry x="200" y="450" width="30" height="20" as="geometry" />
        </mxCell>
        <mxCell id="15Y53fs5hdpph1pPM63e-32" value="设备端完成固件升级后，上报最新固件版本" style="text;html=1;strokeColor=none;fillColor=none;align=center;verticalAlign=middle;whiteSpace=wrap;rounded=0;" vertex="1" parent="1">
          <mxGeometry x="230" y="450" width="140" height="20" as="geometry" />
        </mxCell>
        <mxCell id="15Y53fs5hdpph1pPM63e-34" value="" style="shape=flexArrow;endArrow=classic;html=1;fillColor=#f5f5f5;strokeColor=#666666;entryX=0.95;entryY=0.748;entryDx=0;entryDy=0;entryPerimeter=0;" edge="1" parent="1" target="15Y53fs5hdpph1pPM63e-20">
          <mxGeometry width="50" height="50" relative="1" as="geometry">
            <mxPoint x="410" y="499.9999999999999" as="sourcePoint" />
            <mxPoint x="630" y="499.9999999999999" as="targetPoint" />
          </mxGeometry>
        </mxCell>
        <mxCell id="15Y53fs5hdpph1pPM63e-36" value="控制台升级成功" style="text;html=1;strokeColor=none;fillColor=none;align=center;verticalAlign=middle;whiteSpace=wrap;rounded=0;" vertex="1" parent="1">
          <mxGeometry x="460" y="470" width="140" height="20" as="geometry" />
        </mxCell>
        <mxCell id="15Y53fs5hdpph1pPM63e-37" value="" style="shape=flexArrow;endArrow=classic;html=1;fillColor=#f5f5f5;strokeColor=#666666;entryX=0.95;entryY=0.748;entryDx=0;entryDy=0;entryPerimeter=0;" edge="1" parent="1">
          <mxGeometry width="50" height="50" relative="1" as="geometry">
            <mxPoint x="410" y="360" as="sourcePoint" />
            <mxPoint x="642.52" y="360.5" as="targetPoint" />
          </mxGeometry>
        </mxCell>
        <mxCell id="15Y53fs5hdpph1pPM63e-39" value="控制台上报固件升级进度" style="text;html=1;strokeColor=none;fillColor=none;align=center;verticalAlign=middle;whiteSpace=wrap;rounded=0;" vertex="1" parent="1">
          <mxGeometry x="460" y="330" width="140" height="20" as="geometry" />
        </mxCell>
      </root>
    </mxGraphModel>
  </diagram>
</mxfile>
